<svg xmlns="http://www.w3.org/2000/svg" viewBox="0 0 64 64">
  <defs>
    <linearGradient id="g" x1="0" y1="0" x2="64" y2="64" gradientUnits="userSpaceOnUse">
      <stop offset="0%" stop-color="#DCBA55"/>
      <stop offset="50%" stop-color="#B8943F"/>
      <stop offset="100%" stop-color="#8C6E28"/>
    </linearGradient>
    <mask id="hole">
      <rect width="64" height="64" fill="white"/>
      <circle cx="32" cy="32" r="11.5" fill="black"/>
    </mask>
  </defs>
  <path mask="url(#hole)" d="
    M29 2 L35 2 L36.5 9.5 C38.8 10.1 41 11 43 12.2 L49.5 7.5 L53.5 10.5 L56.5 14.5 L51.8 21
    C53 23 53.9 25.2 54.5 27.5 L62 29 L62 35 L54.5 36.5 C53.9 38.8 53 41 51.8 43
    L56.5 49.5 L53.5 53.5 L49.5 56.5 L43 51.8 C41 53 38.8 53.9 36.5 54.5
    L35 62 L29 62 L27.5 54.5 C25.2 53.9 23 53 21 51.8 L14.5 56.5 L10.5 53.5
    L7.5 49.5 L12.2 43 C11 41 10.1 38.8 9.5 36.5 L2 35 L2 29 L9.5 27.5
    C10.1 25.2 11 23 12.2 21 L7.5 14.5 L10.5 10.5 L14.5 7.5 L21 12.2
    C23 11 25.2 10.1 27.5 9.5 Z" fill="url(#g)"/>
</svg>
